<svg id="Capa_1" enable-background="new 0 0 512 512" height="512" viewBox="0 0 512 512" width="512" xmlns="http://www.w3.org/2000/svg"><g><g><g><g><g><path d="m113.76 173.752h284.777v90.014h-284.777z" fill="#fbf2e2"/></g><g><path d="m135.894 241.303v-67.552h-22.134v90.015h284.777v-22.463z" fill="#f7e0ba"/></g><g><path d="m143.484 68.739c-16.573 0-30.009 13.435-30.009 30.009s13.435 30.009 30.009 30.009c1.293 0 2.567-.082 3.818-.24l25.991-33.252c-1.727-14.934-14.414-26.526-29.809-26.526z" fill="#d3e0ef"/></g><g><path d="m158.586 113.654c-16.573 0-30.009-13.436-30.009-30.009 0-4.376.944-8.529 2.628-12.278-10.449 4.693-17.73 15.183-17.73 27.38 0 16.573 13.435 30.009 30.009 30.009 1.293 0 2.567-.082 3.818-.24l11.625-14.872c-.115 0-.227.01-.341.01z" fill="#9bb6f1"/></g><g><path d="m113.76 293.751h284.777v90.014h-284.777z" fill="#ffc277"/></g><g><path d="m135.894 362.304v-67.552h-22.134v90.015h284.777v-22.463z" fill="#ff905b"/></g><g><path d="m113.76 413.751h284.777v90.014h-284.777z" fill="#fbf2e2"/></g><g><path d="m135.894 482.304v-67.552h-22.134v90.015h284.777v-22.463z" fill="#f7e0ba"/></g><g><path d="m203.505 323.83h165.011v29.92h-165.011z" fill="#fbf2e2"/></g><g><path d="m203.505 323.83h22.515v29.92h-22.515z" fill="#f7e0ba"/></g><g><path d="m203.505 443.799h165.011v29.92h-165.011z" fill="#ffc277"/></g><g><path d="m203.505 443.799h22.515v29.92h-22.515z" fill="#ff905b"/></g><g><path d="m301.02 84.766h-90.04c-37.277 0-67.496 30.219-67.496 67.496 0 37.277 30.219 67.496 67.496 67.496h90.039c10.766 0 20.943-2.521 29.974-7.004l13.503-8.862c14.688-12.381 24.02-30.916 24.02-51.631 0-37.275-30.219-67.495-67.496-67.495z" fill="#d3e0ef"/></g><g><path d="m367.48 140.541c-5.343 31.823-34.385 55.852-66.461 55.711h-90.039c-.132 0-.264 0-.396-.001-26.001-.15-46.614-22.663-44.343-48.565 2.917-33.269 30.758-63.942 67.323-62.92h-22.584c-89.43 2.908-88.982 132.343.001 134.993 15.064.002 73.919-.002 90.038 0 10.766 0 20.943-2.521 29.974-7.004 26.037-13.614 42.028-41.842 36.487-72.214z" fill="#9bb6f1"/></g><g><path d="m368.535 68.739c-15.395 0-28.082 11.593-29.808 26.524l.016.02c11.718 7.912 20.816 19.408 25.727 32.914l.249.318c1.25.159 2.524.24 3.818.24 16.573 0 30.009-13.435 30.009-30.009s-13.438-30.007-30.011-30.007z" fill="#d3e0ef"/></g><g><path d="m392.862 116.308c-3.276.731-6.901.902-10.273.463l-.249-.318c-3.89-10.699-10.415-20.128-18.781-27.522 6.538-7.515 17.702-11.546 27.984-9.441-6.651-8.225-18.648-12.594-29.469-10.046h-.001c-12.28 2.571-22.022 13.371-23.347 25.819l.016.02c11.718 7.912 20.816 19.408 25.727 32.914l.249.318c4.001.52 8.155.181 12.042-.91-.001-.001-.002-.003-.003-.005 6.559-1.868 12.207-5.902 16.105-11.292z" fill="#9bb6f1"/></g><g><circle cx="211.02" cy="136.256" fill="#ff905b" r="15"/></g><g><circle cx="301.02" cy="136.256" fill="#ff905b" r="15"/></g><g><circle cx="316.02" cy="23.873" fill="#9bb6f1" r="15"/></g><g><path d="m169.518 158.756h15v15h-15z" fill="#fff"/></g><g><path d="m327.523 158.756h15v15h-15z" fill="#fff"/></g><g><path d="m135.984 226.256h15v15h-15z" fill="#fff"/></g><g><path d="m361.016 226.256h15v15h-15z" fill="#fff"/></g></g></g></g><g><path d="m106.185 346.915h15.007v-45.025h269.9v75.048h-269.9v-15.016h-15.007v30.023h299.914v-105.062h-299.914z"/><path d="m106.185 512h209.856v-15.007h-194.849v-75.049h269.9v75.049h-30.03v15.007h45.037v-105.062h-299.914z"/><path d="m331.048 496.993h15.007v15.007h-15.007z"/><path d="m135.959 316.975h45.02v15.007h-45.02z"/><path d="m195.972 316.975v44.941h180.092v-44.941zm165.085 29.934h-150.079v-14.928h150.079z"/><path d="m136.224 436.998h44.755v15.007h-44.755z"/><path d="m376.064 436.998h-180.092v44.941h180.092zm-15.007 29.935h-150.079v-14.928h150.079z"/><path d="m374.45 136.356c17.91-2.829 31.649-18.37 31.649-37.062-.458-40.786-55.844-51.751-72.018-14.8-9.978-4.917-21.193-7.691-33.048-7.691h-37.388v-47.07h31.124c8.447 23.626 43.397 18.06 43.782-7.349-.367-25.23-34.974-30.985-43.677-7.657h-46.236v62.077h-37.685c-11.85 0-23.061 2.772-33.035 7.685-16.174-36.958-71.566-25.963-72.017 14.807 0 18.688 13.733 34.225 31.636 37.059-2.104 9.772-2.144 20.679-.106 30.475h-31.246v105.062h299.914v-105.064h-31.548c3.919-9.954 2.666-22.505-.101-30.472zm-58.409-121.477c9.894.26 9.892 14.749 0 15.007-9.894-.26-9.892-14.749 0-15.007zm52.532 61.895c29.065.848 30.059 42.682 1.189 45.006-5.052-11.509-12.91-21.508-22.706-29.142 2.854-9.272 11.491-15.864 21.517-15.864zm-247.665 22.52c.407-25.791 36.194-30.984 44.037-6.666-9.802 7.635-17.665 17.638-22.72 29.152-11.861-.627-21.317-10.473-21.317-22.486zm270.184 82.541v75.049h-269.9v-75.049h21.01c11.6 26.477 38.044 45.028 68.751 45.028h90.08c11.699 0 22.911-2.62 33.324-7.79l-6.673-13.442c-8.321 4.13-17.287 6.225-26.651 6.225h-90.08c-79.293-2.509-79.335-117.529.001-120.048-.001 0 90.079 0 90.079 0 55.445-.243 81.249 70.481 38.66 105.941l9.672 11.474c8.955-7.549 15.892-16.942 20.449-27.388z"/><path d="m233.503 136.819c-.946-29.749-44.078-29.742-45.021 0 .947 29.749 44.079 29.742 45.021 0zm-22.51 7.504c-9.894-.26-9.892-14.749 0-15.007 9.894.26 9.892 14.749 0 15.007z"/><path d="m301.035 114.309c-29.749.947-29.742 44.078 0 45.021 29.748-.947 29.741-44.079 0-45.021zm0 30.014c-9.894-.26-9.892-14.749 0-15.007 9.894.26 9.892 14.749 0 15.007z"/><path d="m256.072 178.534-27.229-11.147-5.686 13.889 32.927 13.478 32.797-13.483-5.706-13.879z"/></g></g></svg>